<svg width="12" height="12" viewBox="0 0 12 12" fill="none" xmlns="http://www.w3.org/2000/svg">
<path d="M11.25 2.625V5.625C11.25 5.72446 11.2105 5.81984 11.1402 5.89016C11.0698 5.96049 10.9745 6 10.875 6C10.7755 6 10.6802 5.96049 10.6098 5.89016C10.5395 5.81984 10.5 5.72446 10.5 5.625V3.53016L6.64031 7.39031C6.60548 7.42518 6.56412 7.45284 6.5186 7.47171C6.47307 7.49058 6.42428 7.50029 6.37499 7.50029C6.32571 7.50029 6.27692 7.49058 6.23139 7.47171C6.18587 7.45284 6.14451 7.42518 6.10968 7.39031L4.49999 5.78016L1.39031 8.89031C1.31994 8.96068 1.22451 9.00021 1.12499 9.00021C1.02548 9.00021 0.930048 8.96068 0.859682 8.89031C0.789317 8.81995 0.749786 8.72451 0.749786 8.625C0.749786 8.52549 0.789317 8.43005 0.859682 8.35969L4.23468 4.98469C4.26951 4.94982 4.31087 4.92216 4.35639 4.90329C4.40192 4.88442 4.45071 4.8747 4.49999 4.8747C4.54928 4.8747 4.59807 4.88442 4.6436 4.90329C4.68912 4.92216 4.73048 4.94982 4.76531 4.98469L6.37499 6.59484L9.96984 3H7.875C7.77554 3 7.68016 2.96049 7.60983 2.89016C7.5395 2.81984 7.5 2.72446 7.5 2.625C7.5 2.52554 7.5395 2.43016 7.60983 2.35984C7.68016 2.28951 7.77554 2.25 7.875 2.25H10.875C10.9745 2.25 11.0698 2.28951 11.1402 2.35984C11.2105 2.43016 11.25 2.52554 11.25 2.625Z" fill="#68EA6A"/>
</svg>
